<svg xmlns="http://www.w3.org/2000/svg" xmlns:xlink="http://www.w3.org/1999/xlink" width="149.763" height="31.261" viewBox="0 0 149.763 31.261">
  <defs>
    <clipPath id="clip-path">
      <rect id="Rectangle_66" data-name="Rectangle 66" width="149.763" height="31.261" fill="none"/>
    </clipPath>
  </defs>
  <g id="Artwork_13" data-name="Artwork 13" transform="translate(74.881 15.63)">
    <g id="Group_48" data-name="Group 48" transform="translate(-74.881 -15.63)" clip-path="url(#clip-path)">
      <path id="Path_251" data-name="Path 251" d="M10.234,18.052c-1.393-1.09-.908-2.241-1.938-2.241s-2.18,3.089-2.18,4.663v7.994l.363.484c.363.606.787.969,1.09.969v.424H0v-.363c.3,0,.727-.363,1.09-.969l.363-.484V17.143H.606V16.6a7.146,7.146,0,0,0,5.087-2h.424v3.27a3.609,3.609,0,0,1,3.755-2.907,3.2,3.2,0,0,1,2.846,1.393c.363.787-1.272,2.543-2.422,1.7" transform="translate(0 -5.758)" fill="#0c37de"/>
      <path id="Path_252" data-name="Path 252" d="M36.741,29.567c-1.03,1.332-3.755,1.393-5.087.666a3.452,3.452,0,0,1-1.272-1.211l-.545.3c-3.694,2.059-6.359,1.877-7.57-.606-2.12-4,2.725-6.722,7.752-7.63V19.212c0-2-.3-3.634-1.817-3.634-2.483,0-1.453,2.362-2.907,3.936s-2.665.242-2.362-1.03c.727-2.907,5.329-4.239,9.266-2.846,2.12.787,2.422,3.149,2.422,6.419v4c0,2.059,0,3.21.727,3.391a.908.908,0,0,0,.969-.3Zm-6.722-.908h0V21.634a11.2,11.2,0,0,0-3.149,1.09c-1.453.848-1.938,2.665-.787,4.542a3.149,3.149,0,0,0,3.936,1.393" transform="translate(-8.581 -5.949)" fill="#0c37de"/>
      <path id="Path_253" data-name="Path 253" d="M54.628,30.724A7.4,7.4,0,0,1,47.3,22.912c0-4.6,3.028-7.812,7.328-7.812,2.6,0,4.845,1.151,5.269,2.846s-1.393,2-2.362,1.03-.424-3.331-2.907-3.331-2.059,3.573-2.059,7.328,1.393,6.419,3.27,6.54,2.846-.3,4.3-2.725l.424.363a6.442,6.442,0,0,1-5.935,3.634" transform="translate(-18.656 -5.956)" fill="#0c37de"/>
      <path id="Path_254" data-name="Path 254" d="M87.014,24.224v.424h-7.57v-.424c.3,0,.727-.363,1.09-.969l.363-.484V13.807c0-1.453,0-3.634-1.877-3.634s-2.422,1.817-2.6,4.057V22.71l.363.484c.363.606.787.969,1.09.969v.424H70.3v-.363c.3,0,.727-.363,1.09-.969l.363-.484V2.6h-.908V2a7.146,7.146,0,0,0,5.087-2h.424V11.627A4.36,4.36,0,0,1,80.413,9.2c3.21,0,4.966,1.635,5.087,4.6v8.9l.363.484c.363.606.787.969,1.09.969" transform="translate(-27.727 0)" fill="#0c37de"/>
      <path id="Path_255" data-name="Path 255" d="M112.866,15.884a2.846,2.846,0,0,0-1.635.908l-.3.424-.242.545-6.54,13.929h0L103,34.173l-.242.484v.182c-.727,1.453-1.453,2.362-3.089,2.362a2.483,2.483,0,0,1-2.241-1.272c-.545-1.332,1.151-2.3,2.241-1.514s.424,2.059,1.211,2.059,1.09-1.03,1.7-2.18l1.09-2.362v-.182l.787-1.635L98.575,17.277l-.363-.484A1.938,1.938,0,0,0,97,15.824V15.4h7.752v.424c-.3,0-.727.363-1.09.969l-.3.484,3.331,8.115,3.573-7.63.182-.545c.061-1.211-.363-1.332-.666-1.332v-.424h3.149Z" transform="translate(-38.258 -6.074)" fill="#0c37de"/>
      <path id="Path_256" data-name="Path 256" d="M131.37,24.224v.424H123.8v-.424c.3,0,.727-.363,1.09-.969l.363-.484V2.6h-.908V2a7.146,7.146,0,0,0,5.087-2h.424V22.71l.363.484c.363.606.787.969,1.09.969" transform="translate(-48.828)" fill="#0c37de"/>
      <path id="Path_257" data-name="Path 257" d="M154.275,36.889H146.4v-.727h.182c.182,0,.606-.242.969-.908l.3-.484V29.743a5.208,5.208,0,0,1-2.846.848c-4.481,0-7.509-3.21-7.509-7.933s3.028-7.933,7.509-7.933a3.512,3.512,0,0,1,3.21,1.817V14.3h.666a6.161,6.161,0,0,0,4.6,2h.182v.848h-.848V34.769l.3.484c.363.606.787.908.969.908h.182Zm-7.57-.3h7.267V36.4a2.18,2.18,0,0,1-1.09-1.03l-.363-.545h0V16.843h.848V16.6a6.781,6.781,0,0,1-4.663-2h-.242V17.57l-.3-.424c-.848-1.393-1.575-2.059-3.27-2.059-4.36,0-7.207,2.967-7.207,7.63s2.846,7.63,7.207,7.63a4.845,4.845,0,0,0,2.907-.969l.242-.182v5.753l-.363.545a2.119,2.119,0,0,1-1.09,1.03Zm-1.211-6.48h-.061c-1.938-.121-2.907-2.422-3.028-7.328-.061-3.694.363-6.056,1.272-7.025a1.635,1.635,0,0,1,1.211-.545c1.211,0,2.786,1.09,3.21,4.239h0v6.662c-.3,2.483-1.272,4-2.6,4m-.606-14.534a1.332,1.332,0,0,0-.969.424c-.908.908-1.272,3.21-1.211,6.783.121,4.663,1.029,6.964,2.725,7.025s2.12-1.393,2.422-3.694v-6.6c-.424-2.907-1.817-3.936-2.907-3.936" transform="translate(-54.231 -5.64)" fill="#0c37de"/>
      <path id="Path_258" data-name="Path 258" d="M171.814,30.651c-3.452,0-4.905-1.393-4.966-4.784V17.146H166V16.3h.182a7.025,7.025,0,0,0,4.966-2h.666V25.685c0,3.149.363,3.694,1.453,3.694s2.241-1.7,2.483-3.936v-8.3h-.908V16.3h.182a6.964,6.964,0,0,0,4.966-2h.666V28.35l.3.484c.363.606.787.908.969.908h.182v.727h-4.36a1.817,1.817,0,0,1-1.756-1.393l-.182-.606a4.542,4.542,0,0,1-4,2.18M166.3,16.843h.908v9.023c.061,3.21,1.332,4.481,4.663,4.481a4.179,4.179,0,0,0,3.936-2.362l.182-.363.363,1.393a1.514,1.514,0,0,0,1.453,1.151h4.057v-.182a2.18,2.18,0,0,1-1.09-1.03l-.363-.545V14.6h-.242a7.267,7.267,0,0,1-4.966,2v.242h.908v8.6c-.242,2.422-1.393,4.179-2.786,4.179s-1.756-1.151-1.756-4V14.6h-.242a7.267,7.267,0,0,1-4.966,2Z" transform="translate(-65.472 -5.64)" fill="#0c37de"/>
      <path id="Path_259" data-name="Path 259" d="M197.061,30.815l-1.211-.182a3.573,3.573,0,0,1-2.18-1.938,3.694,3.694,0,0,1-.121-3.512c1.211-2.362,4.845-3.815,7.933-4.36v-1.7c0-2.422-.484-3.452-1.635-3.452s-1.575.727-1.817,1.817a4.481,4.481,0,0,1-.969,2.12,1.635,1.635,0,0,1-1.938.3,1.272,1.272,0,0,1-.666-1.514,4.118,4.118,0,0,1,2.18-2.6,9.387,9.387,0,0,1,7.267-.363c2.3.848,2.483,3.573,2.483,6.6v4c0,1.938,0,3.089.606,3.21a.727.727,0,0,0,.848-.3l.121-.121.545.545v.121c-1.09,1.393-3.936,1.393-5.269.727a3.573,3.573,0,0,1-1.272-1.151l-.424.242a9.326,9.326,0,0,1-4.421,1.453m2.786-15.443c1.7,0,1.938,1.877,1.938,3.755v2h-.121c-3.876.666-6.9,2.3-7.812,4.179a3.391,3.391,0,0,0,.121,3.21,3.27,3.27,0,0,0,2,1.756c1.332.424,3.21,0,5.39-1.272l.666-.424v.121a3.27,3.27,0,0,0,1.211,1.151c1.211.606,3.755.666,4.845-.545l-.121-.121a1.03,1.03,0,0,1-.969.242c-.848-.182-.848-1.393-.848-3.512V22.034c0-3.452-.363-5.571-2.3-6.3a9.084,9.084,0,0,0-7.025.3A3.815,3.815,0,0,0,194.82,18.4a.969.969,0,0,0,.484,1.151,1.332,1.332,0,0,0,1.575-.242,4.179,4.179,0,0,0,.908-1.938c.242-1.03.484-2,2.12-2m.606,13.565a3.391,3.391,0,0,1-2.907-1.7,3.755,3.755,0,0,1-.545-2.907,2.967,2.967,0,0,1,1.393-1.817,11.385,11.385,0,0,1,3.21-1.151h.182V28.7h-.121a3.21,3.21,0,0,1-1.211.242m1.03-7.207a10.84,10.84,0,0,0-2.907,1.09,2.665,2.665,0,0,0-1.272,1.635,3.512,3.512,0,0,0,.545,2.665,3.028,3.028,0,0,0,3.634,1.332Z" transform="translate(-76.185 -5.865)" fill="#0c37de"/>
      <path id="Path_260" data-name="Path 260" d="M236.375,30.409H228.5v-.727h.182c.182,0,.606-.3.969-.908l.3-.484V19.448c0-1.393,0-3.512-1.453-3.512s-2.241,1.7-2.483,3.936V28.35l.3.484c.424.666.787.908.969.908h.182v.727H219.6v-.787h.182c.182,0,.606-.3.969-.908l.3-.484V17.146h-.908V16.3h.182a7.025,7.025,0,0,0,4.966-2h.666v2.422a4.9,4.9,0,0,1,8.842,2.786V28.35l.3.484c.424.666.787.908.969.908h.182Zm-7.57-.3h7.267v-.182a2.119,2.119,0,0,1-1.09-1.029l-.363-.545v-8.9c-.061-2.846-1.756-4.481-4.663-4.481a4.239,4.239,0,0,0-3.936,2.362l-.3.606V14.6h-.242a7.267,7.267,0,0,1-4.966,2v.242h.908V28.41l-.363.545a2.18,2.18,0,0,1-1.09,1.03v.182h7.267v-.182a2.119,2.119,0,0,1-1.09-1.03l-.363-.545V19.871c.242-2.422,1.393-4.179,2.786-4.179s1.756,2.362,1.756,3.815v8.9l-.363.545a2.18,2.18,0,0,1-1.09,1.03Z" transform="translate(-86.612 -5.64)" fill="#0c37de"/>
    </g>
  </g>
</svg>
